<?xml version="1.0" encoding="UTF-8"?>
<svg version="1.1" xmlns="http://www.w3.org/2000/svg" width="1024" height="1024">
<path d="M0 0 C337.92 0 675.84 0 1024 0 C1024 337.92 1024 675.84 1024 1024 C686.08 1024 348.16 1024 0 1024 C0 686.08 0 348.16 0 0 Z " fill="#FDFDFD" transform="translate(0,0)"/>
<path d="M0 0 C1.22267578 -0.00773438 2.44535156 -0.01546875 3.70507812 -0.0234375 C5.46561523 -0.01957031 5.46561523 -0.01957031 7.26171875 -0.015625 C8.32737061 -0.01336914 9.39302246 -0.01111328 10.4909668 -0.00878906 C13.31937539 0.25063061 14.8725433 0.87975501 17.3125 2.25 C18.17875 2.353125 19.045 2.45625 19.9375 2.5625 C24.83348438 3.55983015 28.93191863 5.90387836 33.3125 8.25 C33.3125 8.91 33.3125 9.57 33.3125 10.25 C34.1375 10.435625 34.9625 10.62125 35.8125 10.8125 C48.23681492 15.91534363 56.98698003 30.46120054 65.03955078 40.7980957 C68.63637614 45.41230153 72.30386519 49.96504497 76 54.5 C76.83289551 55.52226685 76.83289551 55.52226685 77.68261719 56.56518555 C78.74948288 57.87453521 79.81637618 59.18386239 80.88330078 60.49316406 C88.7184441 70.1244745 96.36207868 79.91042031 104.00390625 89.6953125 C109.39832844 96.59430812 114.86889979 103.42506184 120.40136719 110.21386719 C127.46476781 118.88315641 134.46924063 127.59929156 141.35107422 136.41357422 C145.92026295 142.26487363 150.57820667 148.03129154 155.3125 153.75 C161.89540872 161.70319572 168.28737322 169.79019018 174.62597656 177.93847656 C180.74107732 185.79169626 186.97666991 193.53087168 193.3203125 201.20092773 C197.08194617 205.74952929 200.79952281 210.32868091 204.47265625 214.94921875 C206.48232578 217.46237236 208.52006995 219.95090513 210.5625 222.4375 C219.97099645 233.91521904 229.16515578 245.56372757 238.3125 257.25 C238.44981093 254.13528994 238.44981093 254.13528994 237.33129883 250.81445312 C235.91295981 245.31531059 236.00699369 239.86814726 236.01171875 234.21875 C236.00743362 233.06942993 236.0031485 231.92010986 235.99873352 230.73596191 C235.99300803 228.3086818 235.99247678 225.88138453 235.99682617 223.45410156 C235.99996624 219.78940531 235.9765725 216.12553299 235.95117188 212.4609375 C235.9044352 195.32957584 236.61392397 179.88648603 244.3125 164.25 C244.60286133 163.65832031 244.89322266 163.06664062 245.19238281 162.45703125 C249.50129557 153.77656318 254.38271394 145.93842983 260.3125 138.25 C261.75066238 136.31299162 263.18813839 134.37547348 264.625 132.4375 C271.35831726 123.49463131 278.12074651 114.54989095 285.59765625 106.2109375 C287.59673488 103.92497515 289.47923627 101.55981351 291.375 99.1875 C296.78524829 92.53510287 302.66868648 86.35108185 308.5546875 80.12109375 C311.27100506 77.22972461 313.94564577 74.3005675 316.625 71.375 C320.66337491 66.97558271 324.78985145 62.69807295 329.08203125 58.54296875 C330.92762746 56.64565706 332.6377286 54.7171527 334.35546875 52.70703125 C339.68575512 46.56755 345.55833506 40.94713496 351.34228516 35.24072266 C357.22642445 29.4283642 362.97063225 23.5736976 368.3125 17.25 C369.91918776 15.36036282 371.39589614 13.85580323 373.3125 12.25 C376.39074283 12.15671991 377.29105774 13.2303446 379.5625 15.3125 C380.42875 16.2715625 380.42875 16.2715625 381.3125 17.25 C379.6962447 21.33663421 376.76054688 24.03950866 373.67578125 27.046875 C373.11811569 27.59933899 372.56045013 28.15180298 371.98588562 28.7210083 C370.20362195 30.48550514 368.41483665 32.24318795 366.625 34 C364.2843464 36.3038559 361.94693181 38.61092556 359.61328125 40.921875 C359.052388 41.47717896 358.49149475 42.03248291 357.91360474 42.60461426 C354.35497 46.15018552 350.96961488 49.79236743 347.71557617 53.62207031 C345.70255356 55.95769495 343.52064848 58.09996069 341.3125 60.25 C337.86054667 63.66061257 334.60241309 67.10855817 331.53955078 70.87060547 C329.71596363 72.81893702 327.9999165 74.32736425 325.91455078 75.95849609 C320.29732222 80.55859971 315.30054825 84.85273256 314.171875 92.32617188 C313.77083132 97.94610701 314.08369869 103.51090754 314.4375 109.125 C314.50788437 111.08441004 314.57173472 113.04406618 314.62890625 115.00390625 C314.78164047 119.75879196 315.02214707 124.50161283 315.3125 129.25 C317.56980492 127.00730838 319.8242122 124.76172528 322.078125 122.515625 C322.71443848 121.88350098 323.35075195 121.25137695 324.00634766 120.60009766 C327.69979271 116.91625844 331.2283997 113.16461077 334.6015625 109.18359375 C338.29583622 105.00855838 342.34363195 101.1614407 346.3125 97.25 C347.52292969 96.02603516 347.52292969 96.02603516 348.7578125 94.77734375 C350.52123382 93.03279697 352.32960368 91.3329393 354.171875 89.671875 C360.64648293 84.14037767 360.64648293 84.14037767 363.1875 76.375 C363.17460938 75.65570313 363.16171875 74.93640625 363.1484375 74.1953125 C363.3125 72.25 363.3125 72.25 365.8125 69.25 C366.6375 68.59 367.4625 67.93 368.3125 67.25 C368.6425 66.92 368.9725 66.59 369.3125 66.25 C375.29554614 65.78976568 378.36860848 66.8134296 382.921875 70.58203125 C385.15129543 73.25608329 384.85306891 75.66538927 384.7109375 79.02734375 C384.3125 81.25 384.3125 81.25 382.4375 84.1875 C379.23959653 86.29811629 378.43795385 86.40368222 374.84765625 86.68359375 C367.2315145 88.10452605 362.69867614 93.97482072 357.625 99.375 C356.6235909 100.40804279 355.6203447 101.43930801 354.61523438 102.46875 C349.86433602 107.3625715 345.26992701 112.3749813 340.81713867 117.54248047 C338.59201616 120.06763167 336.22077344 122.39839182 333.8125 124.75 C320.5289598 137.38003422 320.5289598 137.38003422 315.18221474 154.22841454 C315.17965864 155.33997225 315.17710255 156.45152996 315.17446899 157.59677124 C315.16628899 159.51823471 315.16628899 159.51823471 315.15794373 161.47851562 C315.15682403 162.89111323 315.1557735 164.30371089 315.15478516 165.71630859 C315.15011363 167.20993193 315.14496951 168.70355385 315.13938904 170.19717407 C315.1281252 173.41156251 315.11968244 176.62594177 315.11326981 179.84034348 C315.10255528 184.93604696 315.08229816 190.03168484 315.06015015 195.12734985 C314.99835192 209.61725838 314.94434118 224.10716363 314.91113281 238.59716797 C314.89270747 246.60182511 314.86366915 254.60637269 314.8231281 262.61094916 C314.80218195 266.83956148 314.78661867 271.06803644 314.78432083 275.29670334 C314.78215155 279.28426958 314.76605386 283.27155042 314.73993111 287.25902939 C314.73282121 288.71046874 314.73059595 290.161943 314.73403358 291.61339569 C314.7743956 311.92196202 310.29132958 328.32901528 296.2265625 343.5 C294.3125 345.25 294.3125 345.25 292.3125 345.25 C292.3125 345.91 292.3125 346.57 292.3125 347.25 C275.95064724 359.74902074 257.97488518 362.44183816 237.88085938 359.94824219 C214.11525311 356.05034655 199.66043428 339.7505752 185.64038086 321.73510742 C182.45605201 317.65719759 179.17857124 313.67878649 175.8125 309.75 C171.62404503 304.85643289 167.60891571 299.85479377 163.6550293 294.77050781 C159.30251751 289.19277049 154.80460343 283.74005972 150.29589844 278.28833008 C146.6322082 273.8570816 143.00842143 269.39873382 139.4296875 264.8984375 C132.95425255 256.79817016 126.38333373 248.77295169 119.8125 240.75 C111.9762719 231.18200878 104.16511666 221.59349375 96.45703125 211.921875 C94.21379084 209.1270181 91.95185364 206.34806375 89.6875 203.5703125 C84.55522548 197.273772 79.47664533 190.94257157 74.47729492 184.54003906 C70.43737439 179.37909347 66.30131669 174.29935107 62.15722656 169.22192383 C58.57865682 164.82960734 55.05117933 160.40148256 51.5625 155.9375 C46.89735162 149.97029525 42.12444018 144.09965891 37.3125 138.25 C29.76690046 129.06585764 22.3405315 119.83863212 15.3125 110.25 C15.2609375 111.18457031 15.209375 112.11914062 15.15625 113.08203125 C13.14230592 136.40258831 -0.11947915 156.74815338 -13.6875 175.25 C-14.86604771 176.91843808 -16.04452017 178.58692985 -17.22167969 180.25634766 C-28.69686982 196.46976565 -41.24438767 211.62692796 -54.6875 226.25 C-55.17959961 226.7872168 -55.67169922 227.32443359 -56.17871094 227.87792969 C-65.19464703 237.69528233 -74.52521051 247.17471264 -84.01049805 256.53613281 C-88.55126615 261.0339206 -92.91707955 265.57868646 -97.06982422 270.43603516 C-99.19044323 272.81397045 -101.49187418 274.95231792 -103.82446289 277.11914062 C-110.80561913 283.52034039 -110.80561913 283.52034039 -113.44140625 292.375 C-113.84107244 295.42007574 -115.5800781 297.1425781 -117.6875 299.25 C-120.83661479 300.82455739 -123.20758816 300.59799118 -126.6875 300.25 C-129.66422584 298.47719439 -132.11554007 296.39391985 -133.6875 293.25 C-134.2686138 286.16041162 -134.2686138 286.16041162 -131.8125 282.3125 C-129.6875 280.25 -129.6875 280.25 -127.6875 279.25 C-126.40875 279.311875 -125.13 279.37375 -123.8125 279.4375 C-115.72952997 278.65527709 -110.0470085 270.14547287 -105.04394531 264.34423828 C-100.17022035 258.69872514 -94.97060555 253.47021081 -89.6484375 248.25 C-85.88081401 244.52601693 -82.31930507 240.75087635 -78.95727539 236.65649414 C-77.0261798 234.60908001 -75.13599227 232.96497932 -72.94702148 231.21655273 C-67.03318809 226.29597537 -61.70019895 221.84222266 -60.47705078 213.91845703 C-60.03802794 208.02586927 -60.3700518 202.19906858 -60.75 196.3125 C-60.82541717 194.26131505 -60.89382732 192.20985997 -60.95507812 190.15820312 C-61.11867345 185.18200554 -61.37631528 180.21906146 -61.6875 175.25 C-65.63104989 179.10136301 -69.50200608 182.96239674 -73.07421875 187.1640625 C-75.71757523 190.23884957 -78.50917525 193.05156039 -81.45703125 195.8359375 C-82.28267578 196.62226563 -83.10832031 197.40859375 -83.95898438 198.21875 C-85.65944817 199.82902778 -87.37320228 201.42538076 -89.09960938 203.0078125 C-94.06951956 207.79394159 -96.69465784 211.18113798 -97.38378906 218.15063477 C-97.6875 220.25 -97.6875 220.25 -99.625 222.8125 C-103.538647 225.54019336 -107.0291219 225.65158432 -111.6875 225.25 C-114.44079021 223.45437595 -116.21377461 222.19745078 -117.6875 219.25 C-118.33006398 214.66025729 -118.46650671 210.58836316 -115.625 206.75 C-112.15211595 203.794354 -110.17682128 203.49487207 -105.6875 203.25 C-102.30149595 202.70982037 -100.73044056 201.65537209 -98.375 199.1875 C-97.84261719 198.63964844 -97.31023437 198.09179688 -96.76171875 197.52734375 C-94.95911161 195.54821011 -93.21139884 193.53611006 -91.46484375 191.5078125 C-87.06254969 186.45700532 -82.281064 181.82222044 -77.47265625 177.16210938 C-65.85589453 165.73414779 -61.1977735 155.01845895 -61.04833221 138.73448086 C-61.04541481 135.5519341 -61.06590392 132.36997739 -61.0859375 129.1875 C-61.08042801 126.94652538 -61.07229503 124.70555584 -61.06167603 122.46459961 C-61.03888783 116.59033625 -61.04297141 110.71644642 -61.05548096 104.84216309 C-61.07384753 95.44262854 -61.06365286 86.04331235 -61.02962112 76.64382935 C-61.02356305 73.38013755 -61.03671783 70.11692551 -61.05160522 66.85327148 C-61.06150106 47.05034398 -57.74700006 31.42257288 -43.41015625 16.875 C-30.78124686 4.69906441 -17.28317956 -0.11037688 0 0 Z " fill="#6175DD" transform="translate(385.6875,255.75)"/>
<path d="M0 0 C0.33 0 0.66 0 1 0 C1.09358884 22.08834091 1.16405042 44.17664896 1.20724869 66.26514816 C1.2278427 76.52204786 1.25590271 86.77882409 1.30175781 97.03564453 C1.34172252 105.97919814 1.36745577 114.9226623 1.37635398 123.86630273 C1.38155244 128.59856002 1.39370442 133.33056149 1.42292023 138.06273651 C1.45024181 142.52460581 1.45841145 146.98611598 1.45243073 151.44806099 C1.45352352 153.07817352 1.46137717 154.70829912 1.4768219 156.33833885 C1.59550195 169.51986578 -0.08228571 181.64587536 -9 192 C-16.96449533 199.83782343 -26.44136469 204.22428522 -37.625 204.5625 C-48.84192397 204.13857131 -57.03525394 199.88090424 -64.9453125 192.08203125 C-69.7537326 186.88129235 -73 182.30870445 -73 175 C-83.2341146 183.49335759 -83.2341146 183.49335759 -87.47265625 195.72265625 C-88.1781468 198.76933027 -89.4872124 200.19393391 -92 202 C-95.21898839 203.60949419 -98.50946689 203.45470546 -102 203 C-104.9375 201.5625 -104.9375 201.5625 -107 199 C-108.38481046 194.46711111 -108.37011703 191.01782183 -106.75 186.5625 C-105 184 -105 184 -102 182 C-100.845 182.020625 -99.69 182.04125 -98.5 182.0625 C-91.13958076 181.34142381 -85.63494499 173.17930725 -81.22265625 167.85546875 C-77.98757639 163.55140598 -76.86970848 160.17212171 -76.88647461 154.87402344 C-76.88655014 154.07349548 -76.88662567 153.27296753 -76.88670349 152.44818115 C-76.89186478 151.59387512 -76.89702606 150.73956909 -76.90234375 149.859375 C-76.9037587 148.97719299 -76.90517365 148.09501099 -76.90663147 147.18609619 C-76.91221999 144.37402935 -76.92477039 141.5620427 -76.9375 138.75 C-76.94251648 136.84114698 -76.94707913 134.93229272 -76.95117188 133.0234375 C-76.96218566 128.34892753 -76.97944242 123.67447735 -77 119 C-78.26201825 120.248383 -79.52204155 121.4987829 -80.78125 122.75 C-81.48314453 123.44609375 -82.18503906 124.1421875 -82.90820312 124.859375 C-84.85205898 126.84860564 -86.69042101 128.88882451 -88.5 131 C-91.44578795 134.42782597 -94.56175347 137.61134817 -97.8125 140.75 C-99.68775222 142.67883086 -101.43529001 144.64863814 -103.1875 146.6875 C-107.95089809 152.17200953 -113.15138818 157.19918368 -118.328125 162.2890625 C-122.56254005 166.48026923 -126.62792563 170.73713009 -130.4921875 175.2734375 C-130.98976563 175.84320312 -131.48734375 176.41296875 -132 177 C-132.47695313 177.56976562 -132.95390625 178.13953125 -133.4453125 178.7265625 C-135 180 -135 180 -139 180 C-141.25 177.5 -141.25 177.5 -143 175 C-141.53417985 171.57719483 -139.61937745 169.43519517 -136.9375 166.875 C-134.08428067 164.22095 -134.08428067 164.22095 -132 161 C-131.34 161 -130.68 161 -130 161 C-129.79375 160.46890625 -129.5875 159.9378125 -129.375 159.390625 C-127.42038808 155.99226564 -124.77876283 153.48944072 -122 150.75 C-121.4534375 150.19570313 -120.906875 149.64140625 -120.34375 149.0703125 C-116.2533867 145 -116.2533867 145 -114 145 C-113.73517822 144.41299316 -113.47035645 143.82598633 -113.19750977 143.22119141 C-111.95987425 140.92557308 -110.63894023 139.34043619 -108.83984375 137.4609375 C-108.21529297 136.80279053 -107.59074219 136.14464355 -106.94726562 135.46655273 C-105.95243164 134.43123413 -105.95243164 134.43123413 -104.9375 133.375 C-103.570815 131.9369574 -102.20492705 130.49815688 -100.83984375 129.05859375 C-99.84766846 128.01421143 -99.84766846 128.01421143 -98.83544922 126.94873047 C-96.51237668 124.48228128 -94.25123987 121.96965715 -92 119.4375 C-89.57705908 116.71621188 -87.11739033 114.09660973 -84.5 111.5625 C-80.8554116 107.97629174 -77.70525863 104.04778358 -74.50390625 100.06640625 C-72.29771284 97.36459373 -70.04162251 94.72565899 -67.75 92.09716797 C-62.11115431 85.62314168 -56.81627565 78.94991034 -51.64111328 72.1003418 C-48.71180871 68.22605779 -45.73991676 64.41604952 -42.625 60.6875 C-28.03855249 43.0344319 -14.00143745 24.18285527 -2.57470703 4.31518555 C-1.7387254 2.86374354 -0.87289123 1.42954891 0 0 Z " fill="#6C41CD" transform="translate(401,410)"/>
<path d="M0 0 C2.43142628 1.3333628 4.08651982 3.01320051 5.9375 5.0625 C4.3212447 9.14913421 1.38554688 11.85200866 -1.69921875 14.859375 C-2.25688431 15.41183899 -2.81454987 15.96430298 -3.38911438 16.5335083 C-5.17137805 18.29800514 -6.96016335 20.05568795 -8.75 21.8125 C-11.0906536 24.1163559 -13.42806819 26.42342556 -15.76171875 28.734375 C-16.322612 29.28967896 -16.88350525 29.84498291 -17.46139526 30.41711426 C-21.02003 33.96268552 -24.40538512 37.60486743 -27.65942383 41.43457031 C-29.67244644 43.77019495 -31.85435152 45.91246069 -34.0625 48.0625 C-37.51445333 51.47311257 -40.77258691 54.92105817 -43.83544922 58.68310547 C-45.65903637 60.63143702 -47.3750835 62.13986425 -49.46044922 63.77099609 C-55.07767778 68.37109971 -60.07445175 72.66523256 -61.203125 80.13867188 C-61.60416868 85.75860701 -61.29130131 91.32340754 -60.9375 96.9375 C-60.86711563 98.89691004 -60.80326528 100.85656618 -60.74609375 102.81640625 C-60.59335953 107.57129196 -60.35285293 112.31411283 -60.0625 117.0625 C-57.80519508 114.81980838 -55.5507878 112.57422528 -53.296875 110.328125 C-52.66056152 109.69600098 -52.02424805 109.06387695 -51.36865234 108.41259766 C-47.67520729 104.72875844 -44.1466003 100.97711077 -40.7734375 96.99609375 C-37.07916378 92.82105838 -33.03136805 88.9739407 -29.0625 85.0625 C-28.25554687 84.24652344 -27.44859375 83.43054688 -26.6171875 82.58984375 C-24.85376618 80.84529697 -23.04539632 79.1454393 -21.203125 77.484375 C-14.72851707 71.95287767 -14.72851707 71.95287767 -12.1875 64.1875 C-12.20683594 63.10855469 -12.20683594 63.10855469 -12.2265625 62.0078125 C-12.0625 60.0625 -12.0625 60.0625 -9.5625 57.0625 C-8.7375 56.4025 -7.9125 55.7425 -7.0625 55.0625 C-6.7325 54.7325 -6.4025 54.4025 -6.0625 54.0625 C-0.07945386 53.60226568 2.99360848 54.6259296 7.546875 58.39453125 C9.77629543 61.06858329 9.47806891 63.47788927 9.3359375 66.83984375 C8.9375 69.0625 8.9375 69.0625 7.0625 72 C3.86459653 74.11061629 3.06295385 74.21618222 -0.52734375 74.49609375 C-8.1434855 75.91702605 -12.67632386 81.78732072 -17.75 87.1875 C-18.7514091 88.22054279 -19.7546553 89.25180801 -20.75976562 90.28125 C-25.51066398 95.1750715 -30.10507299 100.1874813 -34.55786133 105.35498047 C-36.78298384 107.88013167 -39.15422656 110.21089182 -41.5625 112.5625 C-45.93994579 116.89423813 -50.21679241 121.24524523 -54.0625 126.0625 C-54.51109375 126.61421875 -54.9596875 127.1659375 -55.421875 127.734375 C-61.08446925 135.63404352 -62.94427229 146.24847345 -65.13671875 155.58203125 C-71.35921854 181.65580946 -84.12471631 206.6066209 -99.80761719 228.24853516 C-101.62462514 230.8750661 -103.24321591 233.6142365 -104.85595703 236.36987305 C-106.0625 238.0625 -106.0625 238.0625 -109.0625 240.0625 C-109.35125 240.68125 -109.64 241.3 -109.9375 241.9375 C-111.42639892 244.74986462 -113.59477919 246.08832335 -116.0625 248.0625 C-116.35898437 248.68640625 -116.65546875 249.3103125 -116.9609375 249.953125 C-118.3122975 252.54083564 -119.95813428 253.9427094 -122.1875 255.8125 C-122.91195312 256.42609375 -123.63640625 257.0396875 -124.3828125 257.671875 C-124.93710937 258.13078125 -125.49140625 258.5896875 -126.0625 259.0625 C-133.43470253 252.99127439 -137.45434028 243.32573691 -139.0625 234.0625 C-139.35219454 230.05087374 -139.36664428 226.0521689 -139.36328125 222.03125 C-139.36756638 220.88192993 -139.3718515 219.73260986 -139.37626648 218.54846191 C-139.38199197 216.1211818 -139.38252322 213.69388453 -139.37817383 211.26660156 C-139.37503376 207.60190531 -139.3984275 203.93803299 -139.42382812 200.2734375 C-139.4705648 183.14207584 -138.76107603 167.69898603 -131.0625 152.0625 C-130.77213867 151.47082031 -130.48177734 150.87914062 -130.18261719 150.26953125 C-125.87370443 141.58906318 -120.99228606 133.75092983 -115.0625 126.0625 C-113.62433762 124.12549162 -112.18686161 122.18797348 -110.75 120.25 C-104.01668274 111.30713131 -97.25425349 102.36239095 -89.77734375 94.0234375 C-87.77826512 91.73747515 -85.89576373 89.37231351 -84 87 C-78.58975171 80.34760287 -72.70631352 74.16358185 -66.8203125 67.93359375 C-64.10399494 65.04222461 -61.42935423 62.1130675 -58.75 59.1875 C-54.71162509 54.78808271 -50.58514855 50.51057295 -46.29296875 46.35546875 C-44.44737254 44.45815706 -42.7372714 42.5296527 -41.01953125 40.51953125 C-35.68924488 34.38005 -29.81666494 28.75963496 -24.03271484 23.05322266 C-18.14857555 17.2408642 -12.40436775 11.3861976 -7.0625 5.0625 C-2.83098767 0.08578751 -2.83098767 0.08578751 0 0 Z " fill="#4E4FBD" transform="translate(761.0625,267.9375)"/>
<path d="M0 0 C2.3828125 0.6171875 2.3828125 0.6171875 4.9453125 3.0546875 C7.13941587 6.96591525 7.82094755 9.06058298 7.3828125 13.6171875 C5.34287342 17.2750093 3.87861988 19.28664924 0.3828125 21.6171875 C-0.85082031 21.67390625 -2.08445312 21.730625 -3.35546875 21.7890625 C-8.87955661 22.37917278 -11.36421078 25.81091464 -14.8046875 29.8671875 C-16.10534296 31.33965551 -17.40877697 32.80967341 -18.71484375 34.27734375 C-19.36340332 35.01227051 -20.01196289 35.74719727 -20.68017578 36.50439453 C-23.01835522 39.05476066 -25.51114591 41.38420921 -28.05151367 43.72973633 C-33.8741337 49.15381168 -37.05999665 53.71146662 -39.53515625 61.43359375 C-44.14361638 74.99278151 -54.84157536 86.77214654 -64.40234375 97.15625 C-66.73146583 99.74416342 -68.92894218 102.40937613 -71.1171875 105.1171875 C-73.97902985 108.6573558 -76.91060282 112.07942373 -79.9921875 115.4296875 C-91.38920575 127.9900692 -101.68882669 141.94235371 -110.93359375 156.1484375 C-111.48917969 156.963125 -112.04476562 157.7778125 -112.6171875 158.6171875 C-112.9471875 158.6171875 -113.2771875 158.6171875 -113.6171875 158.6171875 C-113.66360546 144.83884169 -113.69910478 131.06051459 -113.72081184 117.2821064 C-113.73123212 110.88368078 -113.74535929 104.48530881 -113.76806641 98.08691406 C-113.78985733 91.90774892 -113.80176933 85.72863527 -113.80694199 79.54943466 C-113.81062652 77.19643214 -113.81782143 74.84343231 -113.82864761 72.49045181 C-113.84324547 69.18514245 -113.84516196 65.88004364 -113.84423828 62.57470703 C-113.85142883 61.61013077 -113.85861938 60.6455545 -113.86602783 59.65174866 C-113.82366492 45.56747674 -110.11331176 34.33726767 -100.3515625 23.953125 C-92.51312264 17.25685781 -82.54579039 13.09738957 -72.1484375 13.27734375 C-62.42123663 14.58331053 -52.34462996 18.30651918 -45.6171875 25.6171875 C-42.59565289 29.75462978 -39.90911948 34.03332353 -37.6171875 38.6171875 C-34.31570927 35.51422554 -31.04200999 32.38529385 -27.79052734 29.22998047 C-26.68209917 28.16165883 -25.56658028 27.10064177 -24.44384766 26.04736328 C-22.8259208 24.52705757 -21.23577537 22.98182913 -19.6484375 21.4296875 C-19.14534058 20.96788086 -18.64224365 20.50607422 -18.12390137 20.03027344 C-16.15028181 18.0592437 -14.7137034 16.4143089 -14.37207031 13.59277344 C-14.41323142 11.59966136 -14.51309906 9.60800531 -14.6171875 7.6171875 C-10.8127539 0.53306976 -7.66586218 -0.91632755 0 0 Z " fill="#4A9DE6" transform="translate(736.6171875,244.3828125)"/>
<path d="M0 0 C0 0.66 0 1.32 0 2 C0.66 2 1.32 2 2 2 C3.37482452 3.52952876 4.67665897 5.12522906 5.9375 6.75 C6.62714844 7.63171875 7.31679688 8.5134375 8.02734375 9.421875 C9.00380859 10.69804687 9.00380859 10.69804687 10 12 C10.86818359 13.09054687 10.86818359 13.09054687 11.75390625 14.203125 C13 16 13 16 13 18 C13.66 18 14.32 18 15 18 C20.17605211 24.11980597 19.94243328 30.06853961 19.625 37.796875 C17.88543852 57.26546724 3.21803315 76.70268207 -8 92 C-9.17854771 93.66843808 -10.35702017 95.33692985 -11.53417969 97.00634766 C-23.00936982 113.21976565 -35.55688767 128.37692796 -49 143 C-49.49209961 143.5372168 -49.98419922 144.07443359 -50.49121094 144.62792969 C-59.50714703 154.44528233 -68.83771051 163.92471264 -78.32299805 173.28613281 C-82.86376615 177.7839206 -87.22957955 182.32868646 -91.38232422 187.18603516 C-93.50294323 189.56397045 -95.80437418 191.70231792 -98.13696289 193.86914062 C-105.11811913 200.27034039 -105.11811913 200.27034039 -107.75390625 209.125 C-108.15357244 212.17007574 -109.8925781 213.8925781 -112 216 C-115.14911479 217.57455739 -117.52008816 217.34799118 -121 217 C-123.97672584 215.22719439 -126.42804007 213.14391985 -128 210 C-128.5811138 202.91041162 -128.5811138 202.91041162 -126.125 199.0625 C-124 197 -124 197 -122 196 C-120.72125 196.061875 -119.4425 196.12375 -118.125 196.1875 C-110.04202997 195.40527709 -104.3595085 186.89547287 -99.35644531 181.09423828 C-94.48272035 175.44872514 -89.28310555 170.22021081 -83.9609375 165 C-80.06059122 161.14483148 -76.37877581 157.18867031 -72.79931641 153.03515625 C-69.57127925 149.38401408 -66.13094508 145.94663641 -62.6875 142.5 C-61.97271484 141.77296875 -61.25792969 141.0459375 -60.52148438 140.296875 C-59.83763672 139.61109375 -59.15378906 138.9253125 -58.44921875 138.21875 C-57.83393311 137.59935547 -57.21864746 136.97996094 -56.5847168 136.34179688 C-55 135 -55 135 -53 135 C-53.03552979 133.74340576 -53.07105957 132.48681152 -53.10766602 131.19213867 C-53.23792537 126.5350495 -53.36112417 121.87779579 -53.48217773 117.22045898 C-53.53558505 115.20380535 -53.59091343 113.18720165 -53.64819336 111.1706543 C-53.73013953 108.27403531 -53.80520145 105.37730769 -53.87890625 102.48046875 C-53.90594131 101.57725388 -53.93297638 100.674039 -53.96083069 99.74345398 C-53.98092697 98.90280899 -54.00102325 98.062164 -54.02172852 97.19604492 C-54.04171402 96.45658127 -54.06169952 95.71711761 -54.08229065 94.95524597 C-54 93 -54 93 -53 90 C-54.485 89.505 -54.485 89.505 -56 89 C-55.34 89 -54.68 89 -54 89 C-53.49307308 87.4188708 -52.99473557 85.83498617 -52.5 84.25 C-52.2215625 83.36828125 -51.943125 82.4865625 -51.65625 81.578125 C-50.83554715 78.79732471 -50.83554715 78.79732471 -51 75 C-51.66 74.67 -52.32 74.34 -53 74 C-50.38087476 58.42309723 -44.49719866 44.62323584 -35 32 C-34.814375 31.01 -34.814375 31.01 -34.625 30 C-33.68130607 26.98017942 -31.4784655 25.93966865 -29 24 C-27.85152062 22.75034506 -26.72832438 21.47719674 -25.625 20.1875 C-8.23097325 0 -8.23097325 0 0 0 Z " fill="#3C80CA" transform="translate(380,339)"/>
<path d="M0 0 C6.86022539 5.52065475 11.51700058 11.19072997 13 20 C13.84723278 30.59735422 12.54682059 38.85837273 5.875 47.3125 C0.20825982 53.35865475 -7.38062595 56.69204173 -15.57421875 57.23828125 C-23.56793185 57.45186115 -30.00761149 57.33076966 -37 53 C-38.5778125 52.13375 -38.5778125 52.13375 -40.1875 51.25 C-47.11333757 45.70932994 -51.0045108 38.79348796 -52 30 C-52.86307095 20.23545219 -50.60935575 12.81007262 -44.375 5.1875 C-32.79126057 -7.0687037 -14.22401812 -8.6790619 0 0 Z " fill="#3C4B59" transform="translate(456,717)"/>
<path d="M0 0 C4.90875 -0.0825 9.8175 -0.165 14.875 -0.25 C16.40237793 -0.28641602 17.92975586 -0.32283203 19.50341797 -0.36035156 C28.87482013 -0.43623336 36.70455652 0.61238953 44.4375 6.3125 C49.08911812 11.19102632 50.18650482 15.29926205 50.5625 21.875 C50.38595581 28.27873915 48.41282545 32.40167967 44 37 C34.84465977 44.65124862 22.10839244 43.17493531 11 43 C11 48.61 11 54.22 11 60 C7.37 60 3.74 60 0 60 C0 40.2 0 20.4 0 0 Z " fill="#364655" transform="translate(574,713)"/>
<path d="M0 0 C10 0 10 0 12.29345703 1.99682617 C12.77669434 2.91955322 13.25993164 3.84228027 13.7578125 4.79296875 C14.31702393 5.81060303 14.87623535 6.8282373 15.45239258 7.87670898 C16.00435303 8.96927002 16.55631348 10.06183105 17.125 11.1875 C18.31806289 13.39113826 19.51206709 15.59426716 20.70703125 17.796875 C21.26986816 18.86486328 21.83270508 19.93285156 22.41259766 21.03320312 C24.40694744 24.76056988 26.56212264 28.36072374 28.8125 31.9375 C29.41707031 32.91589844 30.02164063 33.89429688 30.64453125 34.90234375 C31.8335912 36.90363563 31.8335912 36.90363563 33 38 C33.27038086 37.52393311 33.54076172 37.04786621 33.81933594 36.55737305 C36.64005433 31.60456512 39.50427786 26.67890505 42.39160156 21.76464844 C43.98413544 19.02726932 45.53489138 16.26885254 47.0859375 13.5078125 C48.09704351 11.77492299 49.11000568 10.04311491 50.125 8.3125 C50.57842773 7.48129639 51.03185547 6.65009277 51.49902344 5.79370117 C51.95567383 5.0329126 52.41232422 4.27212402 52.8828125 3.48828125 C53.46119873 2.47568237 53.46119873 2.47568237 54.05126953 1.44262695 C56 0 56 0 65 0 C65 19.8 65 39.6 65 60 C61.7 60 58.4 60 55 60 C55 47.13 55 34.26 55 21 C54.34 21 53.68 21 53 21 C52.86271484 21.79083984 52.86271484 21.79083984 52.72265625 22.59765625 C51.74506658 25.84748136 50.13991905 28.50240961 48.4375 31.4375 C48.0861499 32.04424561 47.7347998 32.65099121 47.37280273 33.27612305 C37.12454044 50.87545956 37.12454044 50.87545956 35 53 C33.00041636 53.04080783 30.99954746 53.04254356 29 53 C28.69449219 52.41476562 28.38898437 51.82953125 28.07421875 51.2265625 C24.20649374 43.97049248 19.9776626 36.98394536 15.6081543 30.02001953 C15.1419165 29.26962402 14.67567871 28.51922852 14.1953125 27.74609375 C13.77266113 27.07247803 13.35000977 26.3988623 12.91455078 25.70483398 C12 24 12 24 12 22 C11.34 22 10.68 22 10 22 C10 34.54 10 47.08 10 60 C6.7 60 3.4 60 0 60 C0 40.2 0 20.4 0 0 Z " fill="#354554" transform="translate(487,713)"/>
<path d="M0 0 C10 0 10 0 12.9609375 2.5703125 C13.797007 3.73327764 14.60051773 4.92014428 15.375 6.125 C16.29204466 7.4165749 17.21273912 8.70556468 18.13671875 9.9921875 C18.60255371 10.65702148 19.06838867 11.32185547 19.54833984 12.00683594 C21.90921599 15.24837527 24.54228403 18.23952036 27.1875 21.25 C31.96586125 26.71074653 36.4570501 32.32131263 41 38 C41.33 25.46 41.66 12.92 42 0 C45.96 0 49.92 0 54 0 C54 20.13 54 40.26 54 61 C50.37 61 46.74 61 43 61 C42.505 60.030625 42.01 59.06125 41.5 58.0625 C39.24370351 54.11594656 36.40057436 50.98845265 33.33984375 47.6484375 C29.66791766 43.49223401 26.30627942 39.10158824 22.90625 34.72265625 C19.31068472 30.11704643 15.65004412 25.56255515 12 21 C11.67 33.87 11.34 46.74 11 60 C7.37 60 3.74 60 0 60 C0 40.2 0 20.4 0 0 Z " fill="#3A4958" transform="translate(707,713)"/>
<path d="M0 0 C3.96 0 7.92 0 12 0 C12.43755615 0.99104736 12.8751123 1.98209473 13.32592773 3.00317383 C15.35997656 7.60767527 17.39818143 12.21033044 19.4375 16.8125 C19.98448044 18.04759811 19.98448044 18.04759811 20.54251099 19.30764771 C25.05407529 29.48700261 29.58143105 39.64992293 34.52319336 49.63012695 C36.27313909 53.21125805 37.20300404 56.01502022 38 60 C34.04 60 30.08 60 26 60 C21 49.375 21 49.375 21 46 C11.1 46.33 1.2 46.66 -9 47 C-10.98 51.62 -12.96 56.24 -15 61 C-18.96 61 -22.92 61 -27 61 C-25.03236066 54.79126121 -22.74566627 48.93886594 -19.98046875 43.046875 C-19.59941483 42.22479553 -19.2183609 41.40271606 -18.82575989 40.5557251 C-17.61750903 37.95169601 -16.40267693 35.35080307 -15.1875 32.75 C-14.3843194 31.0223428 -13.58158165 29.29447964 -12.77929688 27.56640625 C-11.23328081 24.23784475 -9.684897 20.91040366 -8.13427734 17.58398438 C-5.40659684 11.73012092 -2.70221086 5.86566866 0 0 Z " fill="#384756" transform="translate(218,713)"/>
<path d="M0 0 C3.96 0 7.92 0 12 0 C12.63615234 1.47146484 12.63615234 1.47146484 13.28515625 2.97265625 C17.83219442 13.4516972 22.61707616 23.80737658 27.47851562 34.14355469 C29.13718044 37.67641142 30.78774187 41.21297649 32.4375 44.75 C32.98237061 45.90612793 33.52724121 47.06225586 34.08862305 48.25341797 C34.59433838 49.34025879 35.10005371 50.42709961 35.62109375 51.546875 C36.0792749 52.52495117 36.53745605 53.50302734 37.00952148 54.51074219 C38 57 38 57 38 60 C34.04 60 30.08 60 26 60 C25.16235732 58.04350603 24.33000941 56.08474444 23.5 54.125 C23.0359375 53.03445313 22.571875 51.94390625 22.09375 50.8203125 C21 48 21 48 21 46 C11.1 46 1.2 46 -9 46 C-9.99 48.97 -10.98 51.94 -12 55 C-12.99 57.475 -12.99 57.475 -14 60 C-17.96 60 -21.92 60 -26 60 C-21.80209952 48.62997804 -16.88773438 37.65381671 -11.875 26.625 C-10.65466832 23.93157091 -9.43536728 21.23767831 -8.21658325 18.54354858 C-7.46418809 16.88127562 -6.71073641 15.2194803 -5.95602417 13.55825806 C-3.91583572 9.06081286 -1.92844205 4.54653062 0 0 Z " fill="#394857" transform="translate(654,713)"/>
<path d="M0 0 C4.51716512 3.87815152 8.12391081 8.74121946 8.91015625 14.72265625 C9.2725415 22.35470927 7.57001385 27.51309906 2.6015625 33.375 C-2.87397997 37.91393652 -9.16861304 38.7555215 -16.05859375 38.65234375 C-21.55534071 38.00080947 -25.32126074 35.4282395 -29.2109375 31.625 C-33.39767042 25.40471108 -35.10616424 20.3752433 -34.0390625 12.8359375 C-32.45456135 6.74913431 -28.78871525 1.63423771 -23.3984375 -1.625 C-15.61950192 -4.39377368 -7.15790142 -4.61362367 0 0 Z " fill="#FAFAFB" transform="translate(449.3984375,725.625)"/>
<path d="M0 0 C2.19073525 1.55287057 4.04349209 3.14646619 6 5 C4.55746343 8.36591866 2.66735273 10.51047079 0 13 C-2.24587654 11.91865204 -4.33545396 10.78496541 -6.4375 9.4375 C-9.16058149 7.9099177 -10.90714934 7.3514603 -14 7 C-14.97259766 6.86851562 -14.97259766 6.86851562 -15.96484375 6.734375 C-22.89471163 6.1984977 -27.66212874 8.70670319 -33 13 C-36.92848168 16.87798706 -37.30791051 21.06007328 -37.5625 26.4375 C-37.32700333 33.51052061 -35.35215146 37.57926232 -30.47265625 42.55859375 C-25.33932141 47.16945176 -20.4887177 47.38498322 -13.82421875 47.3671875 C-10.04168475 46.87540576 -7.72594118 45.40461949 -4.75390625 43.09375 C-3 42 -3 42 1 42 C3.75 44.5 3.75 44.5 6 47 C4.24774565 51.46028381 1.41609971 53.79195015 -2.8359375 55.91796875 C-11.67311395 59.41670218 -22.28960097 59.43663577 -31.1171875 55.90234375 C-39.39600539 51.93469451 -45.18699714 45.94311084 -48.5 37.375 C-50.76022198 29.59197475 -50.88088713 21.73776723 -47.86328125 14.13671875 C-43.09195724 5.52219129 -36.46079056 -0.32748943 -27.05859375 -3.33984375 C-17.60650157 -5.37995049 -8.46459896 -4.85241662 0 0 Z " fill="#3A4958" transform="translate(386,716)"/>
<path d="M0 0 C5.78824922 3.11674958 8.25236231 6.44167045 10.25 12.75 C10.53552506 18.42755593 8.86219099 22.3350999 5.25 26.75 C2.31546872 29.46444144 0.1860561 31.11090367 -3.75 31.75 C-5.78596382 31.5824566 -7.8210666 31.40429608 -9.85546875 31.21875 C-15.45168195 31.17490112 -18.05365066 32.11628581 -22.17578125 35.90625 C-23.83928651 37.65523181 -25.46811308 39.43778658 -27.0625 41.25 C-28.33383789 42.60931641 -28.33383789 42.60931641 -29.63085938 43.99609375 C-31.70331627 46.22076499 -33.7393226 48.46959369 -35.75 50.75 C-38.91115776 49.38016497 -39.7427092 48.7609362 -41.75 45.75 C-41.75 42.95820044 -41.33382241 41.37467296 -39.41015625 39.31640625 C-35.2779745 35.75 -35.2779745 35.75 -32.75 35.75 C-32.4096875 34.6671875 -32.4096875 34.6671875 -32.0625 33.5625 C-30.49262951 30.1984918 -28.46030608 28.25703313 -25.75 25.75 C-23.49017103 23.94326547 -23.49017103 23.94326547 -23.66015625 21.39453125 C-23.71042969 20.45996094 -23.76070312 19.52539062 -23.8125 18.5625 C-23.9174765 11.87024782 -22.78984636 8.10366887 -18.3125 2.9375 C-12.49158329 -2.03157524 -7.18807028 -2.39602343 0 0 Z " fill="#625FDA" transform="translate(806.75,219.25)"/>
<path d="M0 0 C4.36082142 -1.16440781 7.67284284 -1.39569578 12 0 C16.82806133 4.69128905 19.81808042 11.14441198 23 17 C24.17756211 19.00586732 25.3628072 21.00728993 26.5625 23 C26.99691406 23.763125 27.43132813 24.52625 27.87890625 25.3125 C28.90421478 27.15941206 28.90421478 27.15941206 31 28 C31.27078369 27.28884033 31.54156738 26.57768066 31.82055664 25.8449707 C33.94094725 20.73031292 36.6993249 15.99177936 39.4375 11.1875 C40.28731445 9.57584961 40.28731445 9.57584961 41.15429688 7.93164062 C42.91391195 4.88949601 44.44776261 2.42123659 47 0 C50.83929901 -0.91417982 54.13887306 -0.70951015 58 0 C56.45396948 4.28092613 54.29063724 8.07056615 51.9375 11.9453125 C51.54554443 12.59700409 51.15358887 13.24869568 50.74975586 13.9201355 C49.50327598 15.99051922 48.25163544 18.05772991 47 20.125 C46.15853161 21.52194117 45.31738247 22.9190747 44.4765625 24.31640625 C38.39687329 34.40469006 38.39687329 34.40469006 36 38 C35.6336141 40.41713479 35.6336141 40.41713479 35.5859375 43.10546875 C35.54726563 44.08837891 35.50859375 45.07128906 35.46875 46.08398438 C35.42234375 47.62022461 35.42234375 47.62022461 35.375 49.1875 C35.33632813 50.22326172 35.29765625 51.25902344 35.2578125 52.32617188 C35.16352131 54.88382027 35.08067082 57.44188578 35 60 C31.37 60 27.74 60 24 60 C24.00902344 58.52789063 24.01804687 57.05578125 24.02734375 55.5390625 C23.99918117 53.56768202 23.96913235 51.59632786 23.9375 49.625 C23.94845703 48.65949219 23.95941406 47.69398438 23.97070312 46.69921875 C23.80950891 39.83695065 22.21963209 36.01259527 18.02075195 30.62988281 C14.26644662 25.74388824 11.27453354 20.3501062 8.125 15.0625 C7.44953125 13.94037109 6.7740625 12.81824219 6.078125 11.66210938 C1.13029691 3.39089073 1.13029691 3.39089073 0 0 Z " fill="#394958" transform="translate(775,713)"/>
<path d="M0 0 C1.32 0.66 2.64 1.32 4 2 C4 2.66 4 3.32 4 4 C4.99 4.33 5.98 4.66 7 5 C6.44204986 8.78729793 4.87689514 10.41946829 2.125 13 C-3.11603216 17.50637342 -3.11603216 17.50637342 -5.1171875 23.734375 C-5.03726563 24.72953125 -4.95734375 25.7246875 -4.875 26.75 C-4.71953876 32.81298855 -5.88328994 36.523359 -10 41 C-15.13184568 44.880176 -20.6272608 45.84572801 -27 45 C-32.29499875 43.12803075 -35.51328198 40.06907903 -38 35 C-39.60863303 28.92047655 -39.20170372 24.54961978 -36 19 C-29.978907 12.22627037 -29.978907 12.22627037 -25.984375 11.76953125 C-25.24703125 11.78371094 -24.5096875 11.79789063 -23.75 11.8125 C-22.55890625 11.82796875 -22.55890625 11.82796875 -21.34375 11.84375 C-19 12 -19 12 -15.25 12.8125 C-11.79074717 13.39107076 -11.79074717 13.39107076 -9.1875 10.5625 C-8.1046875 9.2940625 -8.1046875 9.2940625 -7 8 C-6.34 8 -5.68 8 -5 8 C-4.9175 7.236875 -4.835 6.47375 -4.75 5.6875 C-3.85384206 2.47626739 -2.78388975 1.70625501 0 0 Z " fill="#7431C9" transform="translate(253,588)"/>
<path d="M0 0 C3.63 0 7.26 0 11 0 C11 20.13 11 40.26 11 61 C7.37 61 3.74 61 0 61 C0 40.87 0 20.74 0 0 Z " fill="#394857" transform="translate(271,713)"/>
<path d="M0 0 C3.01125 -0.061875 6.0225 -0.12375 9.125 -0.1875 C10.06230957 -0.21481201 10.99961914 -0.24212402 11.96533203 -0.27026367 C17.06132914 -0.32073521 20.6192298 0.09543318 25 3 C27.41767072 6.43153264 28.01129054 8.35643909 27.9375 12.5625 C26.87374827 16.462923 26.01090912 18.29790208 23 21 C15.64434844 23.91450345 7.78767767 23.13906567 0 23 C0 15.41 0 7.82 0 0 Z " fill="#FBFBFB" transform="translate(585,723)"/>
<path d="M0 0 C0.66 0 1.32 0 2 0 C5.33333333 8 8.66666667 16 12 24 C4.74 24 -2.52 24 -10 24 C-3.71428571 6.85714286 -3.71428571 6.85714286 0 0 Z " fill="#F6F7F7" transform="translate(223,726)"/>
<path d="M0 0 C0.66 0 1.32 0 2 0 C3.66960181 3.81122135 5.33518932 7.62418364 7 11.4375 C7.47695313 12.52611328 7.95390625 13.61472656 8.4453125 14.73632812 C8.89648438 15.77080078 9.34765625 16.80527344 9.8125 17.87109375 C10.23144531 18.82943115 10.65039062 19.78776855 11.08203125 20.77514648 C12 23 12 23 12 24 C4.74 24 -2.52 24 -10 24 C-8.3603125 20.0090625 -8.3603125 20.0090625 -6.6875 15.9375 C-6.34936279 15.1137085 -6.01122559 14.28991699 -5.6628418 13.44116211 C-3.81298938 8.94389354 -1.92702054 4.46475836 0 0 Z " fill="#F6F7F8" transform="translate(659,726)"/>
<path d="M0 0 C0 3.56243413 -0.48942143 3.88872995 -2.859375 6.37109375 C-3.47522461 7.02263428 -4.09107422 7.6741748 -4.72558594 8.34545898 C-5.39364258 9.03583252 -6.06169922 9.72620605 -6.75 10.4375 C-7.42579102 11.14527588 -8.10158203 11.85305176 -8.79785156 12.58227539 C-10.85623292 14.73041457 -12.92644415 16.86651479 -15 19 C-15.60714844 19.6290625 -16.21429688 20.258125 -16.83984375 20.90625 C-18.46906218 22.59088402 -20.10675458 24.26655652 -21.75 25.9375 C-22.48234863 26.68954712 -22.48234863 26.68954712 -23.22949219 27.45678711 C-25.4924126 29.7249124 -26.90878257 30.96959419 -30 32 C-30.94875 31.896875 -31.8975 31.79375 -32.875 31.6875 C-36.24108256 31.72472419 -36.24108256 31.72472419 -38.9375 34.5 C-40.87309622 37.12866455 -41.31463843 38.93971685 -41.0625 42.1875 C-40.31827228 45.91509005 -40.31827228 45.91509005 -38.3125 47.9375 C-35.55279949 49.20547051 -33.00800814 49.65818089 -30 50 C-30 50.33 -30 50.66 -30 51 C-34.13998349 51.32470459 -36.33999001 51.4304413 -39.875 49.125 C-42.69974128 46.30025872 -43.20274282 44.64566229 -43.375 40.75 C-43.32595056 37.37103838 -42.9624901 35.23539647 -40.9375 32.5 C-37.46461595 29.544354 -35.48932128 29.24487207 -31 29 C-27.61399595 28.45982037 -26.04294056 27.40537209 -23.6875 24.9375 C-23.07519531 24.29941406 -22.46289062 23.66132813 -21.83203125 23.00390625 C-20.14251344 21.15588357 -18.50274252 19.27739883 -16.875 17.375 C-11.60881234 11.24927366 -5.74690715 5.66912946 0 0 Z " fill="#479BE5" transform="translate(311,430)"/>
<path d="M0 0 C0.99 0.495 0.99 0.495 2 1 C2 14.86 2 28.72 2 43 C12.03194909 33.13431582 12.03194909 33.13431582 21.3359375 22.88671875 C24.69767296 19.07517362 28.37098859 15.55494995 32 12 C32 18.45071449 23.89086114 24.12510335 19.4609375 28.55859375 C17.6349554 30.3800145 15.80475704 32.19635724 13.96240234 34.0012207 C11.22107623 36.70110547 8.67317058 39.36794542 6.328125 42.421875 C5.55984375 43.27265625 4.7915625 44.1234375 4 45 C2.68 45 1.36 45 0 45 C0 30.15 0 15.3 0 0 Z " fill="#5E7ADD" transform="translate(699,342)"/>
<path d="M0 0 C0 3 0 3 -2.16015625 5.41796875 C-3.12107012 6.34794506 -4.08896711 7.27074207 -5.0625 8.1875 C-6.08267024 9.17508215 -7.10089903 10.16467371 -8.1171875 11.15625 C-8.61444336 11.6409375 -9.11169922 12.125625 -9.62402344 12.625 C-11.98891757 14.98821571 -14.12881289 17.53253429 -16.296875 20.07421875 C-19.36536827 23.54386825 -22.68759155 26.76502448 -26 30 C-26.66 29.67 -27.32 29.34 -28 29 C-26.93987294 27.76878615 -25.87675995 26.54014315 -24.8125 25.3125 C-24.22082031 24.62800781 -23.62914062 23.94351562 -23.01953125 23.23828125 C-20.7598727 20.73386278 -18.3989379 18.37198354 -16 16 C-14.66988862 14.67125757 -13.34052497 13.34176641 -12.01171875 12.01171875 C-8.0078125 8.0078125 -4.00390625 4.00390625 0 0 Z M-29 30 C-28.67 30.99 -28.34 31.98 -28 33 C-31.63 36.63 -35.26 40.26 -39 44 C-39.66 43.67 -40.32 43.34 -41 43 C-37.13635705 38.51282966 -33.25209792 34.12324647 -29 30 Z " fill="#5680E1" transform="translate(740,288)"/>
<path d="M0 0 C0.33 0 0.66 0 1 0 C1.1307258 8.92739498 1.26113844 17.85479447 1.39115143 26.78219986 C1.45153157 30.92755608 1.51201953 35.07291067 1.57275391 39.21826172 C1.63136286 43.21881499 1.68968857 47.21937229 1.74781799 51.21993256 C1.7700441 52.74614357 1.79237222 54.2723531 1.81480408 55.7985611 C1.84620726 57.93634158 1.87724757 60.07412705 1.90820312 62.21191406 C1.92596802 63.4288092 1.94373291 64.64570435 1.96203613 65.8994751 C1.99101478 68.26617316 2 70.63312454 2 73 C1.01 73.99 1.01 73.99 0 75 C0 50.25 0 25.5 0 0 Z " fill="#347DD7" transform="translate(623,328)"/>
<path d="M0 0 C0.33 0 0.66 0 1 0 C1 21.45 1 42.9 1 65 C0.67 65 0.34 65 0 65 C-0.495 36.29 -0.495 36.29 -1 7 C-1.99 7.66 -2.98 8.32 -4 9 C-2.94124926 5.59687262 -1.99097846 2.98646769 0 0 Z " fill="#465AD3" transform="translate(401,410)"/>
<path d="M0 0 C-0.845625 0.37511719 -1.69125 0.75023437 -2.5625 1.13671875 C-14.75214529 6.635911 -23.38991773 12.85440504 -33 22 C-33 17.93174708 -31.57521831 17.11075564 -28.75 14.25 C-23.37757125 9.04474725 -8.27257578 -4.13628789 0 0 Z " fill="#62D4F6" transform="translate(371,258)"/>
<path d="M0 0 C0 4.16951918 -1.72957836 5.19414465 -4.5625 8.1875 C-8.28748112 12.15940472 -11.91903326 16.18036106 -15.4296875 20.34375 C-17.14198339 22.14975363 -18.97380392 23.5614885 -21 25 C-19.47920927 21.49172085 -17.4004327 19.04728354 -14.8125 16.25 C-11.32038209 12.44297291 -7.88584446 8.59980554 -4.5078125 4.69140625 C-3.05861014 3.0657466 -1.555849 1.52324139 0 0 Z " fill="#5079DA" transform="translate(696,334)"/>
<path d="M0 0 C0 3.65362967 -0.65089671 4.0548861 -3.10546875 6.6171875 C-3.75966797 7.30683594 -4.41386719 7.99648438 -5.08789062 8.70703125 C-5.78076172 9.42246094 -6.47363281 10.13789062 -7.1875 10.875 C-7.86103516 11.58269531 -8.53457031 12.29039062 -9.22851562 13.01953125 C-12.76966973 16.7299698 -16.35563415 20.39101634 -20 24 C-20.66 23.67 -21.32 23.34 -22 23 C-21.57589844 22.5875 -21.15179688 22.175 -20.71484375 21.75 C-17.5353697 18.61944093 -14.47139071 15.44726915 -11.5625 12.0625 C-7.91592808 7.82750398 -3.99648447 3.90306016 0 0 Z " fill="#5584DE" transform="translate(294,506)"/>
<path d="M0 0 C-0.9075 0.391875 -1.815 0.78375 -2.75 1.1875 C-6.30305973 3.16901408 -8.02480718 4.44465292 -10 8 C-10.22904064 10.85462843 -9.91222678 13.286861 -9 16 C-6.20247584 19.21197219 -3.1238903 19.5313761 1 20 C1 20.33 1 20.66 1 21 C-3.13998349 21.32470459 -5.33999001 21.4304413 -8.875 19.125 C-11.69974128 16.30025872 -12.20274282 14.64566229 -12.375 10.75 C-12.34662549 7.23156041 -11.91021556 5.25002646 -9.6875 2.5 C-6.21116294 -0.73380192 -4.42990571 -1.37479832 0 0 Z " fill="#57AAE9" transform="translate(280,460)"/>
<path d="M0 0 C0.8971875 0.309375 0.8971875 0.309375 1.8125 0.625 C0.389375 1.5221875 0.389375 1.5221875 -1.0625 2.4375 C-4.32714197 4.44062526 -4.32714197 4.44062526 -6.1875 7.625 C-6.084375 8.8625 -5.98125 10.1 -5.875 11.375 C-5.762198 14.2756229 -5.97503798 15.3402902 -7.73828125 17.703125 C-9.49484219 19.4350448 -11.27703453 21.06543635 -13.1875 22.625 C-13.1875 21.635 -13.1875 20.645 -13.1875 19.625 C-12.5275 19.068125 -11.8675 18.51125 -11.1875 17.9375 C-8.6774144 15.03521352 -9.10058426 13.3564426 -9.30078125 9.65625 C-9.10972368 6.23039004 -7.32137005 4.18564406 -5.1875 1.625 C-2.1875 -0.375 -2.1875 -0.375 0 0 Z " fill="#5490E6" transform="translate(731.1875,244.375)"/>
<path d="M0 0 C2.41114 1.24714138 4.00384514 2.93506069 5.8125 4.9375 C5.4825 5.9275 5.1525 6.9175 4.8125 7.9375 C3.4925 6.2875 2.1725 4.6375 0.8125 2.9375 C-3.47988623 4.58841778 -6.0668915 7.67504566 -9.1875 10.9375 C-10.1775 10.6075 -11.1675 10.2775 -12.1875 9.9375 C-10.6199482 8.2353302 -9.03290216 6.55109446 -7.4375 4.875 C-6.55578125 3.93527344 -5.6740625 2.99554688 -4.765625 2.02734375 C-2.1875 -0.0625 -2.1875 -0.0625 0 0 Z " fill="#657DDE" transform="translate(761.1875,268.0625)"/>
<path d="M0 0 C0 3.44217256 -0.44502591 3.91301396 -2.5546875 6.46875 C-3.08707031 7.12230469 -3.61945312 7.77585937 -4.16796875 8.44921875 C-4.73128906 9.12597656 -5.29460938 9.80273438 -5.875 10.5 C-6.97751397 11.84296945 -8.079112 13.1866915 -9.1796875 14.53125 C-9.67194824 15.12486328 -10.16420898 15.71847656 -10.67138672 16.33007812 C-11.86154718 17.82597991 -12.93963663 19.40945494 -14 21 C-14.66 21 -15.32 21 -16 21 C-14.29055213 17.08171498 -11.73118655 13.85081127 -9.125 10.5 C-8.69058594 9.93152344 -8.25617187 9.36304688 -7.80859375 8.77734375 C-5.3829727 5.63787627 -2.87835261 2.73108806 0 0 Z " fill="#4F69D4" transform="translate(673,360)"/>
<path d="M0 0 C0 4.26812584 -2.51391927 6.07790058 -5.3125 9 C-6.06176758 9.80050781 -6.06176758 9.80050781 -6.82617188 10.6171875 C-9.17607957 13.11960576 -11.55176266 15.59354146 -14 18 C-14.66 17.67 -15.32 17.34 -16 17 C-13.70891588 14.54112319 -11.41703299 12.08299232 -9.125 9.625 C-8.47402344 8.92632812 -7.82304687 8.22765625 -7.15234375 7.5078125 C-6.52714844 6.8375 -5.90195312 6.1671875 -5.2578125 5.4765625 C-4.6817627 4.85861816 -4.10571289 4.24067383 -3.51220703 3.60400391 C-2.36151331 2.38345858 -1.18613383 1.18613383 0 0 Z " fill="#5392E4" transform="translate(314,485)"/>
<path d="M0 0 C0.66 0.33 1.32 0.66 2 1 C1.33613281 1.65226562 0.67226563 2.30453125 -0.01171875 2.9765625 C-4.57350463 7.49173159 -9.02110378 11.96006479 -13 17 C-13.33 16.01 -13.66 15.02 -14 14 C-9.38 9.38 -4.76 4.76 0 0 Z " fill="#5362D7" transform="translate(716,370)"/>
<path d="M0 0 C0.33 0 0.66 0 1 0 C0.49058038 3.99045366 -0.13627787 7.93197772 -0.9375 11.875 C-1.09089844 12.63554687 -1.24429688 13.39609375 -1.40234375 14.1796875 C-1.59957031 14.78039062 -1.79679688 15.38109375 -2 16 C-2.66 16.33 -3.32 16.66 -4 17 C-4.97898638 14.38936966 -5.25842298 12.64605745 -4.2109375 10.02734375 C-3.5006358 8.66039624 -2.76695288 7.30528393 -2.0078125 5.96484375 C-0.99113568 3.98271802 -0.45496757 2.17319616 0 0 Z " fill="#4742B7" transform="translate(698,408)"/>
<path d="M0 0 C0.33 0.66 0.66 1.32 1 2 C-0.29296875 4.53125 -0.29296875 4.53125 -2.1875 7.5 C-2.79980469 8.4796875 -3.41210938 9.459375 -4.04296875 10.46875 C-5.95086487 12.93644798 -7.12332911 13.92842415 -10 15 C-8.89789095 13.24870343 -7.79322568 11.49901536 -6.6875 9.75 C-6.07261719 8.77546875 -5.45773437 7.8009375 -4.82421875 6.796875 C-3.29524241 4.45266287 -1.71179023 2.21215968 0 0 Z " fill="#5E6FDA" transform="translate(390,428)"/>
<path d="M0 0 C0.5775 0.226875 1.155 0.45375 1.75 0.6875 C0.326875 1.5846875 0.326875 1.5846875 -1.125 2.5 C-4.38964197 4.50312526 -4.38964197 4.50312526 -6.25 7.6875 C-6.91 7.6875 -7.57 7.6875 -8.25 7.6875 C-6.86345583 3.41232214 -5.12511737 -0.71182186 0 0 Z " fill="#6597EC" transform="translate(731.25,244.3125)"/>
<path d="M0 0 C0 3 0 3 -1.53125 4.82421875 C-2.1809375 5.43910156 -2.830625 6.05398438 -3.5 6.6875 C-4.1496875 7.31011719 -4.799375 7.93273437 -5.46875 8.57421875 C-5.9740625 9.04472656 -6.479375 9.51523437 -7 10 C-7.99 9.67 -8.98 9.34 -10 9 C-6.7 6.03 -3.4 3.06 0 0 Z " fill="#5C73DF" transform="translate(743,342)"/>
<path d="M0 0 C0.5775 0.226875 1.155 0.45375 1.75 0.6875 C0.326875 1.5846875 0.326875 1.5846875 -1.125 2.5 C-4.38964197 4.50312526 -4.38964197 4.50312526 -6.25 7.6875 C-6.91 7.6875 -7.57 7.6875 -8.25 7.6875 C-6.86345583 3.41232214 -5.12511737 -0.71182186 0 0 Z " fill="#687CE1" transform="translate(757.25,322.3125)"/>
<path d="M0 0 C1.485 0.99 1.485 0.99 3 2 C3 2.66 3 3.32 3 4 C4.98 3.01 6.96 2.02 9 1 C7.63016497 4.16115776 7.0109362 4.9927092 4 7 C0 2.25 0 2.25 0 0 Z " fill="#29186C" transform="translate(630,520)"/>
<path d="M0 0 C0.33 0.99 0.66 1.98 1 3 C-1.3125 5.5 -1.3125 5.5 -4 8 C-4.99 8 -5.98 8 -7 8 C-4.69 5.36 -2.38 2.72 0 0 Z " fill="#7257D1" transform="translate(334,501)"/>
<path d="M0 0 C0 4.31618166 -2.13270348 5.92789659 -5 9 C-5.66 9 -6.32 9 -7 9 C-5.44499019 5.18315774 -2.96404505 2.80804268 0 0 Z " fill="#783BC6" transform="translate(315,583)"/>
<path d="M0 0 C0.8125 1.6875 0.8125 1.6875 1 4 C-1.4375 6.75 -1.4375 6.75 -4 9 C-2.94124926 5.59687262 -1.99097846 2.98646769 0 0 Z " fill="#616CDF" transform="translate(401,410)"/>
<path d="M0 0 C0.99 0.33 1.98 0.66 3 1 C1.02 3.31 -0.96 5.62 -3 8 C-3.33 7.01 -3.66 6.02 -4 5 C-2.0625 2.3125 -2.0625 2.3125 0 0 Z " fill="#6348CC" transform="translate(339,495)"/>
</svg>
